<?xml version="1.0" encoding="UTF-8" standalone="no"?>
<!-- Created with Inkscape (http://www.inkscape.org/) -->

<svg
   width="64"
   height="64"
   viewBox="0 0 16.933333 16.933333"
   version="1.1"
   id="svg5"
   xml:space="preserve"
   inkscape:version="1.2.2 (732a01da63, 2022-12-09)"
   sodipodi:docname="WS_CatWelcome.svg"
   xmlns:inkscape="http://www.inkscape.org/namespaces/inkscape"
   xmlns:sodipodi="http://sodipodi.sourceforge.net/DTD/sodipodi-0.dtd"
   xmlns="http://www.w3.org/2000/svg"
   xmlns:svg="http://www.w3.org/2000/svg"><sodipodi:namedview
     id="namedview7"
     pagecolor="#ffffff"
     bordercolor="#000000"
     borderopacity="0.25"
     inkscape:showpageshadow="2"
     inkscape:pageopacity="0.0"
     inkscape:pagecheckerboard="0"
     inkscape:deskcolor="#d1d1d1"
     inkscape:document-units="mm"
     showgrid="false"
     inkscape:zoom="5.9081369"
     inkscape:cx="-23.272988"
     inkscape:cy="24.203908"
     inkscape:window-width="1920"
     inkscape:window-height="1009"
     inkscape:window-x="-8"
     inkscape:window-y="-8"
     inkscape:window-maximized="1"
     inkscape:current-layer="layer1" /><defs
     id="defs2" /><g
     inkscape:label="Cat"
     inkscape:groupmode="layer"
     id="layer1"><path
       style="fill:#ffffff;fill-opacity:1;stroke:#000000;stroke-width:0.180914;stroke-linecap:round;stroke-linejoin:round;stroke-dasharray:none;stroke-opacity:1"
       d="m 6.1009907,12.738011 c 1.3803292,0.239264 7.1788303,0.844528 9.2717773,-0.255194 1.78322,-1.2104 0.896105,-2.5254336 -0.0095,-5.1891955 C 15.391898,6.577505 15.358268,4.128833 14.957331,3.6991678 14.556476,3.269502 12.551371,6.4776716 12.064417,6.4776716 10.559239,6.928062 9.8154951,3.3597401 9.4577787,3.6991678 6.4389253,4.6799697 4.363465,8.4755658 4.7207853,10.017708 4.0102119,9.6735902 4.0225831,9.3673936 2.9268759,9.1909697 1.2946285,8.9281555 -0.1224794,11.207448 0.44378821,11.503154 0.95784863,11.771595 1.2457153,10.239463 2.478812,10.27021 c 1.1736277,0.02926 2.2418498,2.228545 3.6221787,2.467801 z"
       id="path2138"
       sodipodi:nodetypes="zccscccsssz"
       transform="translate(0.10691592,0.07641153)"
       inkscape:label="Body" /><path
       style="fill:#ffffff;fill-opacity:1;stroke:#000000;stroke-width:0.163578;stroke-linecap:round;stroke-linejoin:round;stroke-dasharray:none;stroke-opacity:1"
       d="m 14.576136,4.7909351 c 0,0 0.205101,2.1872338 -0.195823,2.1797336 -0.488422,-0.00914 -0.695721,-0.062338 -1.10011,-0.37601 -0.465145,-0.3607999 1.295935,-1.8037211 1.295935,-1.8037211 z"
       id="path2244"
       sodipodi:nodetypes="csscc"
       transform="translate(0.10691592,0.07641153)"
       inkscape:label="Ear2" /><path
       style="fill:#ffffff;fill-opacity:1;stroke:#000000;stroke-width:0.163578;stroke-linecap:round;stroke-linejoin:round;stroke-dasharray:none;stroke-opacity:1"
       d="m 7.9649201,6.6111721 c 0.7665763,0.051849 1.133419,0.052327 1.7889693,0.00135 C 11.102772,6.5076138 9.7392242,6.289277 9.2664671,4.4412216 8.6222906,4.947248 7.2748171,6.4901075 7.9649201,6.6111721 Z"
       id="path3698"
       sodipodi:nodetypes="cscc"
       transform="translate(0.10691592,0.07641153)"
       inkscape:label="Ear1" /><g
       id="g407"
       transform="translate(9.8522317,12.94225)"><path
         style="fill:#000000;fill-opacity:0;stroke:#000000;stroke-width:0.159222;stroke-linecap:round;stroke-linejoin:round"
         d="M 3.5274579,2.2427479 6.0532625,1.4226632 6.7109972,2.4314486"
         id="path188" /><path
         style="fill:#000000;fill-opacity:0;stroke:#000000;stroke-width:0.149584;stroke-linecap:round;stroke-linejoin:round"
         d="M 5.4930849,1.7313237 5.8777453,2.4736586"
         id="path190" /><path
         style="fill:#000000;fill-opacity:0;stroke:#000000;stroke-width:0.18;stroke-linecap:round;stroke-linejoin:round"
         id="path244"
         sodipodi:type="arc"
         sodipodi:cx="3.0900183"
         sodipodi:cy="2.4182751"
         sodipodi:rx="0.44782871"
         sodipodi:ry="0.44782871"
         sodipodi:start="3.8188546"
         sodipodi:end="3.8091909"
         sodipodi:open="true"
         sodipodi:arc-type="arc"
         d="M 2.7410292,2.137638 A 0.44782871,0.44782871 0 0 1 3.3698114,2.068609 0.44782871,0.44782871 0 0 1 3.4403593,2.6972227 0.44782871,0.44782871 0 0 1 2.8119179,2.769289 0.44782871,0.44782871 0 0 1 2.7383335,2.1410236" /></g><path
       style="fill:#000000;fill-opacity:0;stroke:#000000;stroke-width:0.18;stroke-linecap:round;stroke-linejoin:round"
       d="M 15.047044,10.523975 14.464867,9.2700542 13.658775,10.613541"
       id="path413" /><path
       style="fill:#000000;fill-opacity:0;stroke:#000000;stroke-width:0.18;stroke-linecap:round;stroke-linejoin:round"
       d="M 12.18094,10.523975 11.598763,9.2700542 10.792671,10.613541"
       id="path415" /></g></svg>
